<svg aria-roledescription="er" role="graphics-document document" viewBox="-15.91842269897461 0 363.8522033691406 537.046875" height="537.046875" xmlns="http://www.w3.org/2000/svg" width="363.8522033691406" id="tmpMermaidElement7531"><style>#tmpMermaidElement {background: white;}#tmpMermaidElement7531{font-family:"trebuchet ms",verdana,arial,sans-serif;font-size:16px;fill:#000000;}#tmpMermaidElement7531 .error-icon{fill:#552222;}#tmpMermaidElement7531 .error-text{fill:#552222;stroke:#552222;}#tmpMermaidElement7531 .edge-thickness-normal{stroke-width:2px;}#tmpMermaidElement7531 .edge-thickness-thick{stroke-width:3.5px;}#tmpMermaidElement7531 .edge-pattern-solid{stroke-dasharray:0;}#tmpMermaidElement7531 .edge-pattern-dashed{stroke-dasharray:3;}#tmpMermaidElement7531 .edge-pattern-dotted{stroke-dasharray:2;}#tmpMermaidElement7531 .marker{fill:#000000;stroke:#000000;}#tmpMermaidElement7531 .marker.cross{stroke:#000000;}#tmpMermaidElement7531 svg{font-family:"trebuchet ms",verdana,arial,sans-serif;font-size:16px;}#tmpMermaidElement7531 .entityBox{fill:#cde498;stroke:#13540c;}#tmpMermaidElement7531 .attributeBoxOdd{fill:#ffffff;stroke:#13540c;}#tmpMermaidElement7531 .attributeBoxEven{fill:#f2f2f2;stroke:#13540c;}#tmpMermaidElement7531 .relationshipLabelBox{fill:hsl(78.1578947368, 58.4615384615%, 84.5098039216%);opacity:0.7;background-color:hsl(78.1578947368, 58.4615384615%, 84.5098039216%);}#tmpMermaidElement7531 .relationshipLabelBox rect{opacity:0.5;}#tmpMermaidElement7531 .relationshipLine{stroke:#000000;}#tmpMermaidElement7531 .entityTitleText{text-anchor:middle;font-size:18px;fill:#000000;}#tmpMermaidElement7531 #MD_PARENT_START{fill:#f5f5f5!important;stroke:#000000!important;stroke-width:1;}#tmpMermaidElement7531 #MD_PARENT_END{fill:#f5f5f5!important;stroke:#000000!important;stroke-width:1;}#tmpMermaidElement7531 :root{--mermaid-font-family:"trebuchet ms",verdana,arial,sans-serif;}</style><g></g><defs><marker orient="auto" markerHeight="240" markerWidth="190" refY="7" refX="0" id="MD_PARENT_START"><path d="M 18,7 L9,13 L1,7 L9,1 Z"></path></marker></defs><defs><marker orient="auto" markerHeight="28" markerWidth="20" refY="7" refX="19" id="MD_PARENT_END"><path d="M 18,7 L9,13 L1,7 L9,1 Z"></path></marker></defs><defs><marker orient="auto" markerHeight="18" markerWidth="18" refY="9" refX="0" id="ONLY_ONE_START"><path d="M9,0 L9,18 M15,0 L15,18" fill="none" stroke="gray"></path></marker></defs><defs><marker orient="auto" markerHeight="18" markerWidth="18" refY="9" refX="18" id="ONLY_ONE_END"><path d="M3,0 L3,18 M9,0 L9,18" fill="none" stroke="gray"></path></marker></defs><defs><marker orient="auto" markerHeight="18" markerWidth="30" refY="9" refX="0" id="ZERO_OR_ONE_START"><circle r="6" cy="9" cx="21" fill="white" stroke="gray"></circle><path d="M9,0 L9,18" fill="none" stroke="gray"></path></marker></defs><defs><marker orient="auto" markerHeight="18" markerWidth="30" refY="9" refX="30" id="ZERO_OR_ONE_END"><circle r="6" cy="9" cx="9" fill="white" stroke="gray"></circle><path d="M21,0 L21,18" fill="none" stroke="gray"></path></marker></defs><defs><marker orient="auto" markerHeight="36" markerWidth="45" refY="18" refX="18" id="ONE_OR_MORE_START"><path d="M0,18 Q 18,0 36,18 Q 18,36 0,18 M42,9 L42,27" fill="none" stroke="gray"></path></marker></defs><defs><marker orient="auto" markerHeight="36" markerWidth="45" refY="18" refX="27" id="ONE_OR_MORE_END"><path d="M3,9 L3,27 M9,18 Q27,0 45,18 Q27,36 9,18" fill="none" stroke="gray"></path></marker></defs><defs><marker orient="auto" markerHeight="36" markerWidth="57" refY="18" refX="18" id="ZERO_OR_MORE_START"><circle r="6" cy="18" cx="48" fill="white" stroke="gray"></circle><path d="M0,18 Q18,0 36,18 Q18,36 0,18" fill="none" stroke="gray"></path></marker></defs><defs><marker orient="auto" markerHeight="36" markerWidth="57" refY="18" refX="39" id="ZERO_OR_MORE_END"><circle r="6" cy="18" cx="9" fill="white" stroke="gray"></circle><path d="M21,18 Q39,0 57,18 Q39,36 21,18" fill="none" stroke="gray"></path></marker></defs><path style="stroke: gray; fill: none;" marker-start="url(#ONLY_ONE_START)" marker-end="url(#ZERO_OR_MORE_END)" d="M121.983,143.016L121.983,151.349C121.983,159.682,121.983,176.349,121.983,193.016C121.983,209.682,121.983,226.349,121.983,234.682L121.983,243.016" class="er relationshipLine"></path><path style="stroke: gray; fill: none;" marker-start="url(#ONLY_ONE_START)" marker-end="url(#ONE_OR_MORE_END)" d="M78.271,318.031L68.559,326.365C58.847,334.698,39.424,351.365,35.909,372.031C32.394,392.698,44.789,417.365,50.986,429.698L57.183,442.031" class="er relationshipLine"></path><path style="stroke: gray; fill: none;" marker-start="url(#ONLY_ONE_START)" marker-end="url(#ONE_OR_MORE_END)" d="M187.127,318.031L201.6,326.365C216.074,334.698,245.02,351.365,259.494,368.031C273.967,384.698,273.967,401.365,273.967,409.698L273.967,418.031" class="er relationshipLine"></path><path style="stroke: gray; fill: none;" marker-start="url(#ZERO_OR_MORE_START)" marker-end="url(#ONLY_ONE_END)" d="M83.325,442.031L89.768,429.698C96.211,417.365,109.097,392.698,115.54,372.031C121.983,351.365,121.983,334.698,121.983,326.365L121.983,318.031" class="er relationshipLine"></path><g transform="translate(56.620513916015625,20 )" id="entity-Person-84ee9ab5-8d8f-5582-81c6-bfa2c33a578d"><rect height="123.015625" width="130.72586059570312" y="0" x="0" class="er entityBox"></rect><text style="dominant-baseline: middle; text-anchor: middle; font-size: 12px;" transform="translate(65.36293029785156,13.5078125)" y="0" x="0" id="text-entity-Person-84ee9ab5-8d8f-5582-81c6-bfa2c33a578d" class="er entityLabel">Person</text><rect height="24" width="75.86648559570312" y="27.015625" x="0" class="er attributeBoxOdd"></rect><text style="dominant-baseline: middle; font-size: 10.2px;" transform="translate(5,39.015625)" y="0" x="0" id="text-entity-Person-84ee9ab5-8d8f-5582-81c6-bfa2c33a578d-attr-1-type" class="er entityLabel">name</text><rect height="24" width="54.859375" y="27.015625" x="75.86648559570312" class="er attributeBoxOdd"></rect><text style="dominant-baseline: middle; font-size: 10.2px;" transform="translate(80.86648559570312,39.015625)" y="0" x="0" id="text-entity-Person-84ee9ab5-8d8f-5582-81c6-bfa2c33a578d-attr-1-name" class="er entityLabel">CharField</text><rect height="24" width="75.86648559570312" y="51.015625" x="0" class="er attributeBoxEven"></rect><text style="dominant-baseline: middle; font-size: 10.2px;" transform="translate(5,63.015625)" y="0" x="0" id="text-entity-Person-84ee9ab5-8d8f-5582-81c6-bfa2c33a578d-attr-2-type" class="er entityLabel">second_name</text><rect height="24" width="54.859375" y="51.015625" x="75.86648559570312" class="er attributeBoxEven"></rect><text style="dominant-baseline: middle; font-size: 10.2px;" transform="translate(80.86648559570312,63.015625)" y="0" x="0" id="text-entity-Person-84ee9ab5-8d8f-5582-81c6-bfa2c33a578d-attr-2-name" class="er entityLabel">CharField</text><rect height="24" width="75.86648559570312" y="75.015625" x="0" class="er attributeBoxOdd"></rect><text style="dominant-baseline: middle; font-size: 10.2px;" transform="translate(5,87.015625)" y="0" x="0" id="text-entity-Person-84ee9ab5-8d8f-5582-81c6-bfa2c33a578d-attr-3-type" class="er entityLabel">family</text><rect height="24" width="54.859375" y="75.015625" x="75.86648559570312" class="er attributeBoxOdd"></rect><text style="dominant-baseline: middle; font-size: 10.2px;" transform="translate(80.86648559570312,87.015625)" y="0" x="0" id="text-entity-Person-84ee9ab5-8d8f-5582-81c6-bfa2c33a578d-attr-3-name" class="er entityLabel">CharField</text><rect height="24" width="75.86648559570312" y="99.015625" x="0" class="er attributeBoxEven"></rect><text style="dominant-baseline: middle; font-size: 10.2px;" transform="translate(5,111.015625)" y="0" x="0" id="text-entity-Person-84ee9ab5-8d8f-5582-81c6-bfa2c33a578d-attr-4-type" class="er entityLabel">pseudonym</text><rect height="24" width="54.859375" y="99.015625" x="75.86648559570312" class="er attributeBoxEven"></rect><text style="dominant-baseline: middle; font-size: 10.2px;" transform="translate(80.86648559570312,111.015625)" y="0" x="0" id="text-entity-Person-84ee9ab5-8d8f-5582-81c6-bfa2c33a578d-attr-4-name" class="er entityLabel">CharField</text></g><g transform="translate(220,418.03125 )" id="entity-Address-c76279a2-ae7d-51c9-9b7a-8d5514196196"><rect height="99.015625" width="107.93377685546875" y="0" x="0" class="er entityBox"></rect><text style="dominant-baseline: middle; text-anchor: middle; font-size: 12px;" transform="translate(53.966888427734375,13.5078125)" y="0" x="0" id="text-entity-Address-c76279a2-ae7d-51c9-9b7a-8d5514196196" class="er entityLabel">Address</text><rect height="24" width="37.34002685546875" y="27.015625" x="0" class="er attributeBoxOdd"></rect><text style="dominant-baseline: middle; font-size: 10.2px;" transform="translate(5,39.015625)" y="0" x="0" id="text-entity-Address-c76279a2-ae7d-51c9-9b7a-8d5514196196-attr-1-type" class="er entityLabel">name</text><rect height="24" width="70.59375" y="27.015625" x="37.34002685546875" class="er attributeBoxOdd"></rect><text style="dominant-baseline: middle; font-size: 10.2px;" transform="translate(42.34002685546875,39.015625)" y="0" x="0" id="text-entity-Address-c76279a2-ae7d-51c9-9b7a-8d5514196196-attr-1-name" class="er entityLabel">CharField</text><rect height="24" width="37.34002685546875" y="51.015625" x="0" class="er attributeBoxEven"></rect><text style="dominant-baseline: middle; font-size: 10.2px;" transform="translate(5,63.015625)" y="0" x="0" id="text-entity-Address-c76279a2-ae7d-51c9-9b7a-8d5514196196-attr-2-type" class="er entityLabel">lon</text><rect height="24" width="70.59375" y="51.015625" x="37.34002685546875" class="er attributeBoxEven"></rect><text style="dominant-baseline: middle; font-size: 10.2px;" transform="translate(42.34002685546875,63.015625)" y="0" x="0" id="text-entity-Address-c76279a2-ae7d-51c9-9b7a-8d5514196196-attr-2-name" class="er entityLabel">DecimalField</text><rect height="24" width="37.34002685546875" y="75.015625" x="0" class="er attributeBoxOdd"></rect><text style="dominant-baseline: middle; font-size: 10.2px;" transform="translate(5,87.015625)" y="0" x="0" id="text-entity-Address-c76279a2-ae7d-51c9-9b7a-8d5514196196-attr-3-type" class="er entityLabel">lat</text><rect height="24" width="70.59375" y="75.015625" x="37.34002685546875" class="er attributeBoxOdd"></rect><text style="dominant-baseline: middle; font-size: 10.2px;" transform="translate(42.34002685546875,87.015625)" y="0" x="0" id="text-entity-Address-c76279a2-ae7d-51c9-9b7a-8d5514196196-attr-3-name" class="er entityLabel">DecimalField</text></g><g transform="translate(20,442.03125 )" id="entity-Place-18cedc50-4c85-52d4-b2dd-111465382dcf"><rect height="51.015625" width="100" y="0" x="0" class="er entityBox"></rect><text style="dominant-baseline: middle; text-anchor: middle; font-size: 12px;" transform="translate(50,13.5078125)" y="0" x="0" id="text-entity-Place-18cedc50-4c85-52d4-b2dd-111465382dcf" class="er entityLabel">Place</text><rect height="24" width="41.240325927734375" y="27.015625" x="0" class="er attributeBoxOdd"></rect><text style="dominant-baseline: middle; font-size: 10.2px;" transform="translate(5,39.015625)" y="0" x="0" id="text-entity-Place-18cedc50-4c85-52d4-b2dd-111465382dcf-attr-1-type" class="er entityLabel">name</text><rect height="24" width="58.759674072265625" y="27.015625" x="41.240325927734375" class="er attributeBoxOdd"></rect><text style="dominant-baseline: middle; font-size: 10.2px;" transform="translate(46.240325927734375,39.015625)" y="0" x="0" id="text-entity-Place-18cedc50-4c85-52d4-b2dd-111465382dcf-attr-1-name" class="er entityLabel">CharField</text></g><g transform="translate(51.30375671386719,243.015625 )" id="entity-Event-5fcfcec5-0af7-59ba-bebb-bb0a822c8afa"><rect height="75.015625" width="141.359375" y="0" x="0" class="er entityBox"></rect><text style="dominant-baseline: middle; text-anchor: middle; font-size: 12px;" transform="translate(70.6796875,13.5078125)" y="0" x="0" id="text-entity-Event-5fcfcec5-0af7-59ba-bebb-bb0a822c8afa" class="er entityLabel">Event</text><rect height="24" width="63.25" y="27.015625" x="0" class="er attributeBoxOdd"></rect><text style="dominant-baseline: middle; font-size: 10.2px;" transform="translate(5,39.015625)" y="0" x="0" id="text-entity-Event-5fcfcec5-0af7-59ba-bebb-bb0a822c8afa-attr-1-type" class="er entityLabel">description</text><rect height="24" width="78.109375" y="27.015625" x="63.25" class="er attributeBoxOdd"></rect><text style="dominant-baseline: middle; font-size: 10.2px;" transform="translate(68.25,39.015625)" y="0" x="0" id="text-entity-Event-5fcfcec5-0af7-59ba-bebb-bb0a822c8afa-attr-1-name" class="er entityLabel">TextField</text><rect height="24" width="63.25" y="51.015625" x="0" class="er attributeBoxEven"></rect><text style="dominant-baseline: middle; font-size: 10.2px;" transform="translate(5,63.015625)" y="0" x="0" id="text-entity-Event-5fcfcec5-0af7-59ba-bebb-bb0a822c8afa-attr-2-type" class="er entityLabel">date</text><rect height="24" width="78.109375" y="51.015625" x="63.25" class="er attributeBoxEven"></rect><text style="dominant-baseline: middle; font-size: 10.2px;" transform="translate(68.25,63.015625)" y="0" x="0" id="text-entity-Event-5fcfcec5-0af7-59ba-bebb-bb0a822c8afa-attr-2-name" class="er entityLabel">DateTimeField</text></g><rect height="17.015625" width="101.828125" y="184.50819396972656" x="71.06893920898438" class="er relationshipLabelBox"></rect><text style="text-anchor: middle; dominant-baseline: middle; font-size: 12px;" y="193.01600646972656" x="121.98300170898438" id="rel409" class="er relationshipLabel">ManyToManyField</text><rect height="17.015625" width="63.044921875" y="365.6520080566406" x="4.081577301025391" class="er relationshipLabelBox"></rect><text style="text-anchor: middle; dominant-baseline: middle; font-size: 12px;" y="374.1598205566406" x="35.60403823852539" id="rel410" class="er relationshipLabel">ForeignKey</text><rect height="17.015625" width="63.044921875" y="347.5724182128906" x="215.36843872070312" class="er relationshipLabelBox"></rect><text style="text-anchor: middle; dominant-baseline: middle; font-size: 12px;" y="356.0802307128906" x="246.89089965820312" id="rel411" class="er relationshipLabel">ForeignKey</text><rect height="17.015625" width="63.044921875" y="374.147705078125" x="80.3058853149414" class="er relationshipLabelBox"></rect><text style="text-anchor: middle; dominant-baseline: middle; font-size: 12px;" y="382.655517578125" x="111.8283462524414" id="rel412" class="er relationshipLabel">ForeignKey</text></svg>